<svg width="34" height="9" viewBox="0 0 34 9" fill="none" xmlns="http://www.w3.org/2000/svg">
<path d="M4.75586 5.08008H5.46875C5.46875 5.59115 5.32227 5.97526 5.0293 6.23242C4.73958 6.48633 4.3457 6.61328 3.84766 6.61328C3.5026 6.61328 3.20312 6.53353 2.94922 6.37402C2.69857 6.21452 2.50326 5.99316 2.36328 5.70996C2.22656 5.42676 2.1582 5.09798 2.1582 4.72363V4.16211C2.1582 3.78776 2.22656 3.45898 2.36328 3.17578C2.50326 2.89258 2.69857 2.67122 2.94922 2.51172C3.20312 2.35221 3.5026 2.27246 3.84766 2.27246C4.3457 2.27246 4.74121 2.39941 5.03418 2.65332C5.32715 2.90723 5.47363 3.28971 5.47363 3.80078H4.76074C4.76074 3.47852 4.68262 3.2474 4.52637 3.10742C4.37337 2.96745 4.14714 2.89746 3.84766 2.89746C3.63281 2.89746 3.45215 2.95117 3.30566 3.05859C3.15918 3.16602 3.0485 3.31576 2.97363 3.50781C2.89876 3.69661 2.86133 3.91309 2.86133 4.15723V4.72363C2.86133 4.97103 2.89876 5.19076 2.97363 5.38281C3.0485 5.57161 3.15918 5.71973 3.30566 5.82715C3.45215 5.93457 3.63281 5.98828 3.84766 5.98828C4.14714 5.98828 4.37337 5.91829 4.52637 5.77832C4.67936 5.63835 4.75586 5.4056 4.75586 5.08008ZM1.01074 4.44043C1.01074 4.87337 1.08561 5.27702 1.23535 5.65137C1.38509 6.02572 1.59342 6.35286 1.86035 6.63281C2.12728 6.91276 2.43652 7.13086 2.78809 7.28711C3.13965 7.44336 3.51562 7.52148 3.91602 7.52148C4.31641 7.52148 4.69076 7.44336 5.03906 7.28711C5.39062 7.13086 5.69824 6.91276 5.96191 6.63281C6.22884 6.35286 6.43717 6.02572 6.58691 5.65137C6.73665 5.27702 6.81152 4.87337 6.81152 4.44043C6.81152 4.00423 6.73665 3.60059 6.58691 3.22949C6.43717 2.8584 6.22884 2.53451 5.96191 2.25781C5.69824 1.97786 5.39062 1.76139 5.03906 1.6084C4.69076 1.45215 4.31641 1.37402 3.91602 1.37402C3.51562 1.37402 3.13965 1.45215 2.78809 1.6084C2.43652 1.76139 2.12728 1.97786 1.86035 2.25781C1.59342 2.53451 1.38509 2.8584 1.23535 3.22949C1.08561 3.60059 1.01074 4.00423 1.01074 4.44043ZM0.449219 4.44043C0.449219 3.92285 0.538737 3.44271 0.717773 3C0.89681 2.55729 1.14583 2.17155 1.46484 1.84277C1.78385 1.51074 2.15169 1.25358 2.56836 1.07129C2.98828 0.885742 3.4375 0.792969 3.91602 0.792969C4.39453 0.792969 4.84212 0.885742 5.25879 1.07129C5.67871 1.25358 6.04655 1.51074 6.3623 1.84277C6.68132 2.17155 6.93034 2.55729 7.10938 3C7.28841 3.44271 7.37793 3.92285 7.37793 4.44043C7.37793 4.95801 7.28841 5.43815 7.10938 5.88086C6.93034 6.32357 6.68132 6.71257 6.3623 7.04785C6.04655 7.37988 5.67871 7.63867 5.25879 7.82422C4.84212 8.00977 4.39453 8.10254 3.91602 8.10254C3.4375 8.10254 2.98828 8.00977 2.56836 7.82422C2.15169 7.63867 1.78385 7.37988 1.46484 7.04785C1.14583 6.71257 0.89681 6.32357 0.717773 5.88086C0.538737 5.43815 0.449219 4.95801 0.449219 4.44043ZM16.0831 7.25781V8H11.4298V7.35059L13.7589 4.75781C14.0454 4.4388 14.2667 4.16862 14.423 3.94727C14.5825 3.72266 14.6932 3.52246 14.755 3.34668C14.8201 3.16764 14.8527 2.98535 14.8527 2.7998C14.8527 2.56543 14.8038 2.35384 14.7062 2.16504C14.6118 1.97298 14.4718 1.81999 14.2863 1.70605C14.1007 1.59212 13.8761 1.53516 13.6124 1.53516C13.2967 1.53516 13.033 1.59701 12.8214 1.7207C12.6131 1.84115 12.4568 2.01042 12.3527 2.22852C12.2485 2.44661 12.1964 2.69727 12.1964 2.98047H11.2931C11.2931 2.58008 11.381 2.21387 11.5568 1.88184C11.7325 1.5498 11.993 1.28613 12.338 1.09082C12.6831 0.892253 13.1079 0.792969 13.6124 0.792969C14.0616 0.792969 14.4458 0.872721 14.7648 1.03223C15.0838 1.18848 15.3279 1.40983 15.4972 1.69629C15.6697 1.97949 15.756 2.31152 15.756 2.69238C15.756 2.90072 15.7202 3.1123 15.6486 3.32715C15.5802 3.53874 15.4842 3.75033 15.3605 3.96191C15.24 4.1735 15.0984 4.38184 14.9357 4.58691C14.7762 4.79199 14.6053 4.99382 14.423 5.19238L12.5187 7.25781H16.0831ZM21.759 3.87891V4.96289C21.759 5.54557 21.7069 6.03711 21.6027 6.4375C21.4986 6.83789 21.3488 7.16016 21.1535 7.4043C20.9582 7.64844 20.7222 7.82585 20.4455 7.93652C20.1721 8.04395 19.8628 8.09766 19.5178 8.09766C19.2443 8.09766 18.992 8.06348 18.7609 7.99512C18.5298 7.92676 18.3215 7.81771 18.1359 7.66797C17.9536 7.51497 17.7974 7.31641 17.6672 7.07227C17.537 6.82812 17.4377 6.5319 17.3693 6.18359C17.301 5.83529 17.2668 5.42839 17.2668 4.96289V3.87891C17.2668 3.29622 17.3189 2.80794 17.423 2.41406C17.5305 2.02018 17.6818 1.70443 17.8771 1.4668C18.0724 1.22591 18.3068 1.05339 18.5803 0.949219C18.857 0.845052 19.1662 0.792969 19.508 0.792969C19.7847 0.792969 20.0386 0.827148 20.2697 0.895508C20.5041 0.960612 20.7124 1.06641 20.8947 1.21289C21.077 1.35612 21.2316 1.54818 21.3586 1.78906C21.4888 2.02669 21.5881 2.31803 21.6564 2.66309C21.7248 3.00814 21.759 3.41341 21.759 3.87891ZM20.8508 5.10938V3.72754C20.8508 3.40853 20.8312 3.12858 20.7922 2.8877C20.7564 2.64355 20.7027 2.43522 20.631 2.2627C20.5594 2.09017 20.4683 1.9502 20.3576 1.84277C20.2502 1.73535 20.1249 1.65723 19.9816 1.6084C19.8417 1.55632 19.6838 1.53027 19.508 1.53027C19.2931 1.53027 19.1027 1.57096 18.9367 1.65234C18.7707 1.73047 18.6307 1.85579 18.5168 2.02832C18.4061 2.20085 18.3215 2.42708 18.2629 2.70703C18.2043 2.98698 18.175 3.32715 18.175 3.72754V5.10938C18.175 5.42839 18.1929 5.70996 18.2287 5.9541C18.2678 6.19824 18.3247 6.40983 18.3996 6.58887C18.4745 6.76465 18.5656 6.90951 18.673 7.02344C18.7805 7.13737 18.9042 7.22201 19.0441 7.27734C19.1874 7.32943 19.3452 7.35547 19.5178 7.35547C19.7391 7.35547 19.9328 7.31315 20.0988 7.22852C20.2648 7.14388 20.4032 7.01204 20.5139 6.83301C20.6278 6.65072 20.7124 6.41797 20.7678 6.13477C20.8231 5.84831 20.8508 5.50651 20.8508 5.10938ZM27.8254 7.25781V8H23.1721V7.35059L25.5012 4.75781C25.7877 4.4388 26.009 4.16862 26.1653 3.94727C26.3248 3.72266 26.4355 3.52246 26.4973 3.34668C26.5624 3.16764 26.595 2.98535 26.595 2.7998C26.595 2.56543 26.5461 2.35384 26.4485 2.16504C26.3541 1.97298 26.2141 1.81999 26.0286 1.70605C25.843 1.59212 25.6184 1.53516 25.3547 1.53516C25.039 1.53516 24.7753 1.59701 24.5637 1.7207C24.3554 1.84115 24.1991 2.01042 24.095 2.22852C23.9908 2.44661 23.9387 2.69727 23.9387 2.98047H23.0354C23.0354 2.58008 23.1233 2.21387 23.2991 1.88184C23.4748 1.5498 23.7353 1.28613 24.0803 1.09082C24.4254 0.892253 24.8502 0.792969 25.3547 0.792969C25.804 0.792969 26.1881 0.872721 26.5071 1.03223C26.8261 1.18848 27.0702 1.40983 27.2395 1.69629C27.412 1.97949 27.4983 2.31152 27.4983 2.69238C27.4983 2.90072 27.4625 3.1123 27.3909 3.32715C27.3225 3.53874 27.2265 3.75033 27.1028 3.96191C26.9823 4.1735 26.8407 4.38184 26.678 4.58691C26.5185 4.79199 26.3476 4.99382 26.1653 5.19238L24.261 7.25781H27.8254ZM30.3567 4.00098H31.0013C31.317 4.00098 31.5774 3.94889 31.7825 3.84473C31.9909 3.7373 32.1455 3.59245 32.2464 3.41016C32.3506 3.22461 32.4026 3.01628 32.4026 2.78516C32.4026 2.51172 32.3571 2.28223 32.2659 2.09668C32.1748 1.91113 32.0381 1.77116 31.8558 1.67676C31.6735 1.58236 31.4424 1.53516 31.1624 1.53516C30.9085 1.53516 30.6839 1.58561 30.4886 1.68652C30.2965 1.78418 30.1452 1.92415 30.0345 2.10645C29.9271 2.28874 29.8733 2.50358 29.8733 2.75098H28.97C28.97 2.38965 29.0612 2.06087 29.2435 1.76465C29.4258 1.46842 29.6813 1.23242 30.0101 1.05664C30.3421 0.880859 30.7262 0.792969 31.1624 0.792969C31.5921 0.792969 31.9681 0.869466 32.2903 1.02246C32.6126 1.1722 32.8633 1.39681 33.0423 1.69629C33.2213 1.99251 33.3108 2.36198 33.3108 2.80469C33.3108 2.98372 33.2685 3.17578 33.1839 3.38086C33.1025 3.58268 32.9739 3.77148 32.7982 3.94727C32.6256 4.12305 32.401 4.2679 32.1243 4.38184C31.8476 4.49251 31.5156 4.54785 31.1282 4.54785H30.3567V4.00098ZM30.3567 4.74316V4.20117H31.1282C31.5807 4.20117 31.9551 4.25488 32.2513 4.3623C32.5475 4.46973 32.7802 4.61296 32.9495 4.79199C33.122 4.97103 33.2425 5.16797 33.3108 5.38281C33.3825 5.5944 33.4183 5.80599 33.4183 6.01758C33.4183 6.34961 33.3613 6.64421 33.2474 6.90137C33.1367 7.15853 32.9788 7.37663 32.7737 7.55566C32.5719 7.7347 32.3343 7.86979 32.0608 7.96094C31.7874 8.05208 31.4896 8.09766 31.1673 8.09766C30.858 8.09766 30.5667 8.05371 30.2933 7.96582C30.0231 7.87793 29.7838 7.75098 29.5755 7.58496C29.3672 7.41569 29.2044 7.20898 29.0872 6.96484C28.97 6.71745 28.9114 6.43587 28.9114 6.12012H29.8148C29.8148 6.36751 29.8685 6.58398 29.9759 6.76953C30.0866 6.95508 30.2428 7.09993 30.4446 7.2041C30.6497 7.30501 30.8906 7.35547 31.1673 7.35547C31.444 7.35547 31.6816 7.30827 31.8802 7.21387C32.082 7.11621 32.2366 6.96973 32.3441 6.77441C32.4547 6.5791 32.5101 6.33333 32.5101 6.03711C32.5101 5.74089 32.4482 5.49837 32.3245 5.30957C32.2008 5.11751 32.025 4.97591 31.7972 4.88477C31.5726 4.79036 31.3073 4.74316 31.0013 4.74316H30.3567Z" fill="white"/>
</svg>
