<svg width="49" height="44" viewBox="0 0 49 44" fill="none" xmlns="http://www.w3.org/2000/svg">
<path fill-rule="evenodd" clip-rule="evenodd" d="M28.9127 0.250002H21.0834C16.9807 0.249942 13.6737 0.249902 11.0728 0.599582C8.37247 0.962622 6.09885 1.73931 4.2931 3.54506C2.48735 5.35081 1.71067 7.62443 1.34762 10.3248C0.997942 12.9257 0.99799 16.2326 0.998048 20.3353V23.6647C0.99799 27.7674 0.997942 31.0744 1.34762 33.6753C1.71067 36.3756 2.48735 38.6492 4.2931 40.455C6.09885 42.2607 8.37248 43.0374 11.0728 43.4005C13.6737 43.7502 16.9806 43.7501 21.0834 43.75H28.9127C33.0154 43.7501 36.3224 43.7502 38.9233 43.4005C41.6236 43.0374 43.8973 42.2607 45.703 40.455C47.5088 38.6492 48.2854 36.3756 48.6485 33.6753C48.9982 31.0744 48.9981 27.7674 48.9981 23.6646V20.3354C48.9981 16.2327 48.9982 12.9257 48.6485 10.3248C48.2854 7.62443 47.5088 5.35081 45.703 3.54506C43.8973 1.73931 41.6236 0.962622 38.9233 0.599582C36.3224 0.249902 33.0155 0.249942 28.9127 0.250002ZM19.748 28.1973C19.748 29.3953 21.0833 30.1099 22.0801 29.4453L31.3759 23.2481C32.2665 22.6544 32.2665 21.3457 31.3759 20.752L22.0801 14.5547C21.0833 13.8902 19.748 14.6048 19.748 15.8028V28.1973Z" fill="white"/>
</svg>
